<?xml version="1.0" encoding="utf-8"?>
<!-- Generator: Adobe Illustrator 27.1.1, SVG Export Plug-In . SVG Version: 6.00 Build 0)  -->
<svg version="1.2" baseProfile="tiny" id="black" xmlns="http://www.w3.org/2000/svg" xmlns:xlink="http://www.w3.org/1999/xlink"
	 x="0px" y="0px" viewBox="0 0 256 256" overflow="visible" xml:space="preserve">
<g>
	<path 
    style="fill:#000000"
    d="M251.5,61.3c-1.1-7.1-2.3-13.6-3.4-19.3c-3-14.8-14.5-26.3-29.3-29.3c-5.7-1.1-12.2-2.3-19.3-3.4l1.9,50.1L251.5,61.3z"/>
	<circle 
    style="fill:#000000"
    cx="123.8" cy="121.9" r="15.5"/>
	<path 
    style="fill:#000000"
    d="M253.8,78.7l-10.5-0.4l-58.7-2.2l-2.2-58.7L182,6.9c-18-2-38.3-3-58.7-1.5C102.1,7,80.8,11.3,62.2,20c0,0,0,0,0,0
		c-16.4,6.4-30,17.6-39.3,32.1c0,0,0,0,0,0C16.8,60.7,12,70.2,8.3,80.3c-19.4,53.1-3.2,105.6,31,140.2c-3.9-31.1,0.4-69.4,6.4-90.3
		c5.9-20.5,27.1-60.4,60.4-60.4h0.7c6.3,0,12.8,1.1,19,3.1c1.1,0.4,2.3,0.8,3.4,1.2c23,8.7,42.2,29.3,40.3,49.9
		c-0.2,2.6,0.9,5.2,3,6.8c10,7.5,25.5,19.9,34.3,31.3c2.3,3-0.9,7.1-4.4,5.7c-5.6-2.3-13.1-5.3-21-8.3c-17.3-5.3-30.3-4.2-38.5,0.1
		C130.6,173.3,121.3,196,169,256c3.8-1,7.6-2.2,11.4-3.6c10.1-3.7,19.6-8.5,28.1-14.6c0,0,0,0,0,0c14.5-9.3,25.8-23,32.1-39.3
		c8.8-18.6,13-39.9,14.6-61.1C256.8,117,255.8,96.7,253.8,78.7z"/>
</g>
</svg>
