<?xml version="1.0" encoding="UTF-8" standalone="no"?>
<!-- Created with Inkscape (http://www.inkscape.org/) -->

<svg
   version="1.1"
   id="svg2"
   width="85"
   height="85"
   viewBox="0 0 85 85"
   xmlns="http://www.w3.org/2000/svg"
   xmlns:svg="http://www.w3.org/2000/svg">
  <defs
     id="defs6" />
  <g
     id="g8">
    <path
       style="fill:#000000"
       d="m 0.86713694,42.705217 c 0,-41.5000003 0,-41.5000003 42.00000006,-41.5000003 42,0 42,0 42,41.5000003 0,41.5 0,41.5 -42,41.5 -42.00000006,0 -42.00000006,0 -42.00000006,-41.5 z m 28.94531206,35.5279 c 6.842584,-3.490826 10.081926,-12.05521 16.53899,-43.726861 0.596253,-2.924598 1.053725,-3.252624 5.333943,-3.82465 6.71036,-0.896799 7.181755,-1.147285 7.181755,-3.816174 0,-2.127961 -0.571459,-2.47836 -5,-3.065827 -2.75,-0.364801 -5,-1.142774 -5,-1.728831 0,-2.411937 6.807503,-7.865557 9.818213,-7.865557 4.820766,0 6.181787,-0.932509 6.181787,-4.2354746 0,-8.090087 -19.737982,-1.9995228 -25.970368,8.0136966 -1.635323,2.627381 -4.283275,5.261641 -6.193192,6.16117 -4.459722,2.10043 -5.136143,5.780916 -1.146527,6.238388 3.545353,0.40653 3.506926,1.363891 -0.832146,20.731824 -2.6393,11.78081 -3.833946,15.247046 -6.548391,19 -4.229808,5.848073 -4.649569,6.761484 -3.94775,8.590396 0.798221,2.080129 4.985195,1.873875 9.583686,-0.4721 z"
       id="path548" />
  </g>
</svg>
